<mxfile host="app.diagrams.net" agent="Mozilla/5.0 (Windows NT 10.0; Win64; x64) AppleWebKit/537.36 (KHTML, like Gecko) Chrome/132.0.0.0 Safari/537.36" version="26.0.10">
  <diagram id="e2rd5m3lUXE0BmRiHZDp" name="Page-1">
    <mxGraphModel dx="2553" dy="1680" grid="1" gridSize="10" guides="1" tooltips="1" connect="1" arrows="1" fold="1" page="0" pageScale="1" pageWidth="850" pageHeight="1100" math="0" shadow="0">
      <root>
        <mxCell id="0" />
        <mxCell id="1" parent="0" />
        <mxCell id="mAHHMW8gvATPOaOzgUM6-2" value="" style="ellipse;whiteSpace=wrap;html=1;aspect=fixed;" parent="1" vertex="1">
          <mxGeometry x="60" y="-435" width="10" height="10" as="geometry" />
        </mxCell>
        <mxCell id="NpCspxF0CMTJjFsbfLrl-26" style="edgeStyle=orthogonalEdgeStyle;rounded=0;orthogonalLoop=1;jettySize=auto;html=1;exitX=0;exitY=0.75;exitDx=0;exitDy=0;exitPerimeter=0;entryX=0.967;entryY=0.575;entryDx=0;entryDy=0;entryPerimeter=0;" edge="1" parent="1" source="mAHHMW8gvATPOaOzgUM6-5" target="NpCspxF0CMTJjFsbfLrl-62">
          <mxGeometry relative="1" as="geometry">
            <mxPoint x="-250" y="-265" as="targetPoint" />
            <Array as="points">
              <mxPoint x="-30" y="-265" />
              <mxPoint x="-261" y="-265" />
            </Array>
          </mxGeometry>
        </mxCell>
        <mxCell id="NpCspxF0CMTJjFsbfLrl-41" style="edgeStyle=orthogonalEdgeStyle;rounded=0;orthogonalLoop=1;jettySize=auto;html=1;exitX=0;exitY=0.25;exitDx=0;exitDy=0;exitPerimeter=0;" edge="1" parent="1" source="mAHHMW8gvATPOaOzgUM6-5">
          <mxGeometry relative="1" as="geometry">
            <mxPoint x="-260" y="-330" as="targetPoint" />
            <Array as="points">
              <mxPoint x="-30" y="-330" />
            </Array>
          </mxGeometry>
        </mxCell>
        <mxCell id="NpCspxF0CMTJjFsbfLrl-61" value="&lt;font style=&quot;font-size: 18px;&quot;&gt;&lt;b&gt;a&lt;/b&gt;&lt;/font&gt;" style="edgeLabel;html=1;align=center;verticalAlign=middle;resizable=0;points=[];" vertex="1" connectable="0" parent="NpCspxF0CMTJjFsbfLrl-41">
          <mxGeometry x="0.7453" y="-11" relative="1" as="geometry">
            <mxPoint x="-51" y="11" as="offset" />
          </mxGeometry>
        </mxCell>
        <mxCell id="mAHHMW8gvATPOaOzgUM6-5" value="" style="verticalLabelPosition=bottom;shadow=0;dashed=0;align=center;html=1;verticalAlign=top;shape=mxgraph.electrical.logic_gates.logic_gate;operation=or;" parent="1" vertex="1">
          <mxGeometry x="-30" y="-330" width="100" height="60" as="geometry" />
        </mxCell>
        <mxCell id="NpCspxF0CMTJjFsbfLrl-43" style="edgeStyle=orthogonalEdgeStyle;rounded=0;orthogonalLoop=1;jettySize=auto;html=1;exitX=0;exitY=0.25;exitDx=0;exitDy=0;exitPerimeter=0;entryX=0;entryY=0.25;entryDx=0;entryDy=0;entryPerimeter=0;" edge="1" parent="1" target="mAHHMW8gvATPOaOzgUM6-6">
          <mxGeometry relative="1" as="geometry">
            <mxPoint x="-170" y="-190" as="sourcePoint" />
            <Array as="points">
              <mxPoint x="-170" y="-55" />
            </Array>
          </mxGeometry>
        </mxCell>
        <mxCell id="NpCspxF0CMTJjFsbfLrl-44" style="edgeStyle=orthogonalEdgeStyle;rounded=0;orthogonalLoop=1;jettySize=auto;html=1;exitX=0;exitY=0.75;exitDx=0;exitDy=0;exitPerimeter=0;entryX=0;entryY=0.75;entryDx=0;entryDy=0;entryPerimeter=0;" edge="1" parent="1" target="mAHHMW8gvATPOaOzgUM6-6">
          <mxGeometry relative="1" as="geometry">
            <mxPoint x="-210" y="-160" as="sourcePoint" />
            <Array as="points">
              <mxPoint x="-210" y="-25" />
            </Array>
          </mxGeometry>
        </mxCell>
        <mxCell id="mAHHMW8gvATPOaOzgUM6-6" value="" style="verticalLabelPosition=bottom;shadow=0;dashed=0;align=center;html=1;verticalAlign=top;shape=mxgraph.electrical.logic_gates.logic_gate;operation=or;" parent="1" vertex="1">
          <mxGeometry x="-30" y="-70" width="100" height="60" as="geometry" />
        </mxCell>
        <mxCell id="NpCspxF0CMTJjFsbfLrl-37" style="edgeStyle=orthogonalEdgeStyle;rounded=0;orthogonalLoop=1;jettySize=auto;html=1;entryX=0;entryY=0.25;entryDx=0;entryDy=0;entryPerimeter=0;" edge="1" parent="1" target="mAHHMW8gvATPOaOzgUM6-7">
          <mxGeometry relative="1" as="geometry">
            <mxPoint x="-30" y="-150" as="targetPoint" />
            <mxPoint x="-170" y="-265" as="sourcePoint" />
            <Array as="points">
              <mxPoint x="-170" y="-185" />
            </Array>
          </mxGeometry>
        </mxCell>
        <mxCell id="NpCspxF0CMTJjFsbfLrl-40" style="edgeStyle=orthogonalEdgeStyle;rounded=0;orthogonalLoop=1;jettySize=auto;html=1;entryX=0;entryY=0.75;entryDx=0;entryDy=0;entryPerimeter=0;" edge="1" parent="1" target="mAHHMW8gvATPOaOzgUM6-7">
          <mxGeometry relative="1" as="geometry">
            <mxPoint x="-210" y="-330" as="sourcePoint" />
            <Array as="points">
              <mxPoint x="-210" y="-290" />
              <mxPoint x="-210" y="-115" />
            </Array>
          </mxGeometry>
        </mxCell>
        <mxCell id="mAHHMW8gvATPOaOzgUM6-7" value="" style="verticalLabelPosition=bottom;shadow=0;dashed=0;align=center;html=1;verticalAlign=top;shape=mxgraph.electrical.logic_gates.logic_gate;operation=and;negating=1;negSize=0.15;" parent="1" vertex="1">
          <mxGeometry x="-30" y="-200" width="100" height="60" as="geometry" />
        </mxCell>
        <mxCell id="mAHHMW8gvATPOaOzgUM6-9" value="" style="verticalLabelPosition=bottom;shadow=0;dashed=0;align=center;html=1;verticalAlign=top;shape=mxgraph.electrical.logic_gates.logic_gate;operation=xor;" parent="1" vertex="1">
          <mxGeometry x="250" y="-140" width="100" height="60" as="geometry" />
        </mxCell>
        <mxCell id="mAHHMW8gvATPOaOzgUM6-22" style="edgeStyle=none;curved=1;rounded=0;orthogonalLoop=1;jettySize=auto;html=1;fontSize=12;startSize=8;endSize=8;strokeColor=none;" parent="1" edge="1">
          <mxGeometry relative="1" as="geometry">
            <mxPoint x="70" y="-420" as="targetPoint" />
            <mxPoint x="60" y="-430" as="sourcePoint" />
          </mxGeometry>
        </mxCell>
        <mxCell id="NpCspxF0CMTJjFsbfLrl-48" style="edgeStyle=orthogonalEdgeStyle;rounded=0;orthogonalLoop=1;jettySize=auto;html=1;exitX=0;exitY=0.25;exitDx=0;exitDy=0;exitPerimeter=0;entryX=0;entryY=0.25;entryDx=0;entryDy=0;entryPerimeter=0;" edge="1" parent="1" target="mAHHMW8gvATPOaOzgUM6-19">
          <mxGeometry relative="1" as="geometry">
            <mxPoint x="70" y="-430" as="sourcePoint" />
          </mxGeometry>
        </mxCell>
        <mxCell id="NpCspxF0CMTJjFsbfLrl-56" style="edgeStyle=orthogonalEdgeStyle;rounded=0;orthogonalLoop=1;jettySize=auto;html=1;exitX=1;exitY=0.5;exitDx=0;exitDy=0;exitPerimeter=0;" edge="1" parent="1">
          <mxGeometry relative="1" as="geometry">
            <mxPoint x="610" y="-330" as="targetPoint" />
            <mxPoint x="301" y="-330" as="sourcePoint" />
            <Array as="points">
              <mxPoint x="600" y="-330" />
              <mxPoint x="600" y="-330" />
            </Array>
          </mxGeometry>
        </mxCell>
        <mxCell id="mAHHMW8gvATPOaOzgUM6-19" value="" style="verticalLabelPosition=bottom;shadow=0;dashed=0;align=center;html=1;verticalAlign=top;shape=mxgraph.electrical.logic_gates.logic_gate;operation=xor;" parent="1" vertex="1">
          <mxGeometry x="230" y="-360" width="100" height="60" as="geometry" />
        </mxCell>
        <mxCell id="NpCspxF0CMTJjFsbfLrl-3" style="edgeStyle=orthogonalEdgeStyle;rounded=0;orthogonalLoop=1;jettySize=auto;html=1;exitX=1;exitY=0.5;exitDx=0;exitDy=0;exitPerimeter=0;entryX=0;entryY=0.75;entryDx=0;entryDy=0;entryPerimeter=0;" edge="1" parent="1" source="mAHHMW8gvATPOaOzgUM6-5" target="mAHHMW8gvATPOaOzgUM6-19">
          <mxGeometry relative="1" as="geometry" />
        </mxCell>
        <mxCell id="mAHHMW8gvATPOaOzgUM6-1" value="" style="triangle;whiteSpace=wrap;html=1;" parent="1" vertex="1">
          <mxGeometry y="-460" width="60" height="60" as="geometry" />
        </mxCell>
        <mxCell id="NpCspxF0CMTJjFsbfLrl-50" value="" style="endArrow=classic;html=1;rounded=0;" edge="1" parent="1">
          <mxGeometry width="50" height="50" relative="1" as="geometry">
            <mxPoint y="-430.77" as="sourcePoint" />
            <mxPoint x="-250" y="-430" as="targetPoint" />
          </mxGeometry>
        </mxCell>
        <mxCell id="NpCspxF0CMTJjFsbfLrl-51" style="edgeStyle=orthogonalEdgeStyle;rounded=0;orthogonalLoop=1;jettySize=auto;html=1;exitX=1;exitY=0.5;exitDx=0;exitDy=0;exitPerimeter=0;entryX=0;entryY=0.25;entryDx=0;entryDy=0;entryPerimeter=0;" edge="1" parent="1" source="mAHHMW8gvATPOaOzgUM6-7" target="mAHHMW8gvATPOaOzgUM6-9">
          <mxGeometry relative="1" as="geometry" />
        </mxCell>
        <mxCell id="NpCspxF0CMTJjFsbfLrl-52" style="edgeStyle=orthogonalEdgeStyle;rounded=0;orthogonalLoop=1;jettySize=auto;html=1;exitX=1;exitY=0.5;exitDx=0;exitDy=0;exitPerimeter=0;entryX=0;entryY=0.75;entryDx=0;entryDy=0;entryPerimeter=0;" edge="1" parent="1" source="mAHHMW8gvATPOaOzgUM6-6" target="mAHHMW8gvATPOaOzgUM6-9">
          <mxGeometry relative="1" as="geometry" />
        </mxCell>
        <mxCell id="NpCspxF0CMTJjFsbfLrl-54" style="edgeStyle=orthogonalEdgeStyle;rounded=0;orthogonalLoop=1;jettySize=auto;html=1;exitX=0;exitY=0.25;exitDx=0;exitDy=0;exitPerimeter=0;entryX=0;entryY=0.25;entryDx=0;entryDy=0;entryPerimeter=0;" edge="1" parent="1" target="NpCspxF0CMTJjFsbfLrl-53">
          <mxGeometry relative="1" as="geometry">
            <mxPoint x="150" y="-300" as="sourcePoint" />
            <Array as="points">
              <mxPoint x="150" y="-240" />
            </Array>
          </mxGeometry>
        </mxCell>
        <mxCell id="NpCspxF0CMTJjFsbfLrl-57" style="edgeStyle=orthogonalEdgeStyle;rounded=0;orthogonalLoop=1;jettySize=auto;html=1;exitX=1;exitY=0.5;exitDx=0;exitDy=0;exitPerimeter=0;" edge="1" parent="1" source="NpCspxF0CMTJjFsbfLrl-53">
          <mxGeometry relative="1" as="geometry">
            <mxPoint x="610" y="-220.3636363636365" as="targetPoint" />
          </mxGeometry>
        </mxCell>
        <mxCell id="NpCspxF0CMTJjFsbfLrl-53" value="" style="shape=or;whiteSpace=wrap;html=1;" vertex="1" parent="1">
          <mxGeometry x="420" y="-260" width="60" height="80" as="geometry" />
        </mxCell>
        <mxCell id="NpCspxF0CMTJjFsbfLrl-55" style="edgeStyle=orthogonalEdgeStyle;rounded=0;orthogonalLoop=1;jettySize=auto;html=1;exitX=1;exitY=0.5;exitDx=0;exitDy=0;exitPerimeter=0;entryX=0;entryY=0.75;entryDx=0;entryDy=0;entryPerimeter=0;" edge="1" parent="1" source="mAHHMW8gvATPOaOzgUM6-9" target="NpCspxF0CMTJjFsbfLrl-53">
          <mxGeometry relative="1" as="geometry" />
        </mxCell>
        <mxCell id="NpCspxF0CMTJjFsbfLrl-58" value="&lt;b&gt;&lt;font style=&quot;font-size: 18px;&quot;&gt;c&lt;/font&gt;&lt;/b&gt;" style="text;html=1;align=center;verticalAlign=middle;resizable=0;points=[];autosize=1;strokeColor=none;fillColor=none;" vertex="1" parent="1">
          <mxGeometry x="-280" y="-450" width="30" height="40" as="geometry" />
        </mxCell>
        <mxCell id="NpCspxF0CMTJjFsbfLrl-62" value="&lt;font style=&quot;font-size: 18px;&quot;&gt;&lt;b&gt;b&lt;/b&gt;&lt;/font&gt;" style="text;html=1;align=center;verticalAlign=middle;resizable=0;points=[];autosize=1;strokeColor=none;fillColor=none;" vertex="1" parent="1">
          <mxGeometry x="-290" y="-287" width="30" height="40" as="geometry" />
        </mxCell>
        <mxCell id="NpCspxF0CMTJjFsbfLrl-66" value="&lt;font style=&quot;font-size: 18px;&quot;&gt;&lt;b&gt;x&lt;/b&gt;&lt;/font&gt;" style="text;html=1;align=center;verticalAlign=middle;resizable=0;points=[];autosize=1;strokeColor=none;fillColor=none;" vertex="1" parent="1">
          <mxGeometry x="615" y="-350" width="30" height="40" as="geometry" />
        </mxCell>
        <mxCell id="NpCspxF0CMTJjFsbfLrl-67" value="&lt;font style=&quot;font-size: 18px;&quot;&gt;&lt;b&gt;y&lt;/b&gt;&lt;/font&gt;" style="text;html=1;align=center;verticalAlign=middle;resizable=0;points=[];autosize=1;strokeColor=none;fillColor=none;" vertex="1" parent="1">
          <mxGeometry x="615" y="-240" width="30" height="40" as="geometry" />
        </mxCell>
      </root>
    </mxGraphModel>
  </diagram>
</mxfile>
